<svg xmlns="http://www.w3.org/2000/svg"><symbol id="clock" viewBox="0 0 24 24"><svg xmlns="http://www.w3.org/2000/svg" fill="none"><path stroke="#fff" stroke-linecap="round" stroke-linejoin="round" stroke-opacity=".5" stroke-width="2" d="M12 22C17.5228 22 22 17.5228 22 12C22 6.47715 17.5228 2 12 2C6.47715 2 2 6.47715 2 12C2 17.5228 6.47715 22 12 22Z"/><path stroke="#fff" stroke-linecap="round" stroke-linejoin="round" stroke-opacity=".5" stroke-width="2" d="M15 16L12.586 13.586C12.2109 13.211 12.0001 12.7024 12 12.172V6"/></svg></symbol><symbol id="location" viewBox="0 0 24 24"><svg xmlns="http://www.w3.org/2000/svg" fill="none"><path fill="#fff" fill-opacity=".5" d="M2.99998 9.73725C2.9975 9.88928 3.04129 10.0385 3.12554 10.1651C3.20979 10.2916 3.33052 10.3896 3.47173 10.446L10.6725 13.3267L13.5532 20.5282C13.6089 20.6675 13.705 20.7869 13.8292 20.871C13.9534 20.9551 14.1 21.0001 14.25 21H14.262C14.4139 20.9976 14.5615 20.9491 14.6852 20.861C14.809 20.7729 14.903 20.6493 14.955 20.5065L20.955 4.0065C21.0041 3.87227 21.0138 3.7268 20.983 3.58722C20.9523 3.44764 20.8822 3.31977 20.7812 3.21866C20.6802 3.11755 20.5523 3.04741 20.4128 3.01651C20.2732 2.98561 20.1277 2.99524 19.9935 3.04425L3.49348 9.04425C3.35065 9.09632 3.227 9.19053 3.13888 9.31441C3.05076 9.43828 3.00232 9.58599 2.99998 9.738V9.73725Z"/></svg></symbol><symbol id="phone" viewBox="0 0 24 24"><svg xmlns="http://www.w3.org/2000/svg" fill="none"><path fill="#fff" fill-opacity=".5" d="M18.997 20C10.466 20.012 3.99101 13.46 4.00001 5.003C4.00001 4.45 4.44801 4 5.00001 4H7.64001C8.13501 4 8.55601 4.364 8.62901 4.854C8.80311 6.02905 9.14493 7.17305 9.64401 8.251L9.74701 8.473C9.8162 8.62239 9.83108 8.79124 9.78909 8.95043C9.7471 9.10962 9.65088 9.24917 9.51701 9.345C8.69901 9.929 8.38701 11.104 9.02401 12.02C9.826 13.1733 10.827 14.1746 11.98 14.977C12.897 15.613 14.072 15.301 14.655 14.484C14.7507 14.3497 14.8904 14.2531 15.0498 14.211C15.2092 14.1688 15.3784 14.1836 15.528 14.253L15.749 14.355C16.827 14.855 17.971 15.197 19.146 15.371C19.636 15.444 20 15.865 20 16.361V19C20 19.1314 19.9741 19.2615 19.9238 19.3829C19.8735 19.5043 19.7997 19.6146 19.7068 19.7075C19.6138 19.8003 19.5034 19.874 19.382 19.9242C19.2606 19.9744 19.1304 20.0001 18.999 20H18.997Z"/></svg></symbol></svg>